<svg t="1610435846655" class="icon" viewBox="0 0 1027 1024" version="1.1" xmlns="http://www.w3.org/2000/svg" p-id="4464" xmlns:xlink="http://www.w3.org/1999/xlink" width="128" height="128"><path d="M957.195716 509.327829c0-246.697254-199.984109-446.691334-446.691334-446.691334-246.697254 0-446.691334 199.99408-446.691334 446.691334s199.99408 446.691334 446.691334 446.691334c246.707225 0 446.691334-199.99408 446.691334-446.691334zM550.387537 874.099163v-69.635989a39.883155 39.883155 0 0 0-39.883155-39.883155 39.883155 39.883155 0 0 0-39.883155 39.883155v69.635989c-170.779669-18.45593-306.422278-154.098539-324.888179-324.88818H215.369036a39.883155 39.883155 0 0 0 39.883155-39.883154 39.883155 39.883155 0 0 0-39.883155-39.883155h-69.635988C164.198948 298.655034 299.841558 163.012425 470.621227 144.576436v69.635989a39.883155 39.883155 0 0 0 39.883155 39.883154 39.883155 39.883155 0 0 0 39.883155-39.883154V144.576436c170.78964 18.45593 306.432249 154.098539 324.898149 324.888179H805.639727a39.883155 39.883155 0 0 0-39.883154 39.883155 39.883155 39.883155 0 0 0 39.883154 39.883155h69.645959C856.819786 720.000623 721.177176 855.643233 550.387537 874.099163z" fill="#BFCBD9" p-id="4465"></path><path d="M510.504382 381.701733a127.626095 127.626095 0 1 0 127.626095 127.626096 127.626095 127.626095 0 0 0-127.626095-127.626096z m0 175.485881a47.859786 47.859786 0 1 1 47.859785-47.859785 47.859786 47.859786 0 0 1-47.859785 47.859785z" fill="#BFCBD9" p-id="4466"></path></svg>